# xmcd
#
# Track frame offsets:
# 182
# 11537
# 22512
# 38400
# 46500
# 60212
# 68675
# 95725
# 109750
# 119350
# 130487
# 140750
# 154375
# 164175
# 176787
# 187600
# 199500
# 210862
# 221612
# 230612
#
# Disc length: 3398 seconds
#
# Revision: 0
# Processed by: cddbd v1.4PL0 Copyright (c) Steve Scherf et al.
# Submitted via: Axialis_AX_CDPlayer 2.6
#
DISCID=080d4414
DTITLE=Fats Domino - The Very Best
DYEAR=1900
DGENRE=
TTITLE0=Blueberry Hill
TTITLE1=Blue Monday
TTITLE2=So Long
TTITLE3=Whole Lotta Lovin'
TTITLE4=Jambalaya
TTITLE5=Ballin' the Jack
TTITLE6=Please Don't Leave Me
TTITLE7=When the Saints Go Marchin In
TTITLE8=Yes, It's Me and I'm In Love Again
TTITLE9=I'm Walking
TTITLE10=My Blue Heaven
TTITLE11=Heartbreak Hill
TTITLE12=Walkin
TTITLE13=Let The Four Winds Blow
TTITLE14=Kansas City
TTITLE15=Why Don't You  Do Right?
TTITLE16=I'm Gonna be a Wheel Someday
TTITLE17=Ain't That a Shame?
TTITLE18=I'm Ready
TTITLE19=Domino Twist
EXTD=
EXTT0=
EXTT1=
EXTT2=
EXTT3=
EXTT4=
EXTT5=
EXTT6=
EXTT7=
EXTT8=
EXTT9=
EXTT10=
EXTT11=
EXTT12=
EXTT13=
EXTT14=
EXTT15=
EXTT16=
EXTT17=
EXTT18=
EXTT19=
PLAYORDER=
